# xmcd
#
# Track frame offsets:
#	150
#	10478
#	21901
#	30286
#	41566
#	50266
#	58929
#	68949
#	79352
#	91862
#
# Disc length: 1400 seconds
#
# Revision: 1
# Processed by: cddbd v1.5.2PL0 Copyright (c) Steve Scherf et al.
# Submitted via: audiograbber 1.83.01
#
DISCID=7c05760a
DTITLE=Nathville String Band - Down Home
DYEAR=1970
DGENRE=Instrumental
TTITLE0=Under The Double Eagle
TTITLE1=Just A Closer Walk With Thee
TTITLE2=The Arkansas Traveler
TTITLE3=Cold, Cold Heart
TTITLE4=Fraulein
TTITLE5=Wildwod Flower
TTITLE6=Tennessee Rag
TTITLE7=Maiden's Prayer
TTITLE8=South
TTITLE9=Mockingbird Hill
EXTD=
EXTT0=
EXTT1=
EXTT2=
EXTT3=
EXTT4=
EXTT5=
EXTT6=
EXTT7=
EXTT8=
EXTT9=
PLAYORDER=
